<?xml version="1.0" standalone="no"?>
<!DOCTYPE svg PUBLIC "-//W3C//DTD SVG 20010904//EN"
 "http://www.w3.org/TR/2001/REC-SVG-20010904/DTD/svg10.dtd">
<svg version="1.0" xmlns="http://www.w3.org/2000/svg"
 width="225.000000pt" height="225.000000pt" viewBox="0 0 225.000000 225.000000"
 preserveAspectRatio="xMidYMid meet">

<g transform="translate(0.000000,225.000000) scale(0.100000,-0.100000)"
fill="#000000" stroke="none">
<path d="M1 1693 c1 -332 5 -521 9 -467 11 134 70 333 109 368 10 9 35 19 54
23 66 10 138 -58 124 -119 -2 -13 -16 -62 -30 -109 -66 -223 -52 -444 43 -646
48 -102 85 -157 168 -245 111 -117 262 -206 427 -251 114 -31 326 -31 440 0
166 45 316 134 429 254 168 177 249 381 248 624 0 309 -148 576 -417 754 -104
69 -125 94 -125 149 0 35 6 49 29 73 43 42 88 40 173 -10 310 -181 520 -502
557 -850 5 -47 9 128 10 467 l1 542 -1125 0 -1125 0 1 -557z m1217 520 c50
-37 72 -81 72 -143 0 -173 -210 -235 -307 -91 -27 40 -31 126 -9 169 18 34 53
68 86 81 38 16 127 7 158 -16z m-812 -325 c181 -125 810 -613 847 -657 39 -46
51 -97 38 -149 -15 -54 -62 -107 -108 -123 -46 -15 -118 -6 -152 18 -33 24
-112 123 -346 429 -305 398 -407 544 -382 544 8 0 54 -28 103 -62z"/>
<path d="M2 548 l-2 -548 513 1 c448 1 502 3 432 13 -105 17 -222 56 -330 112
-351 178 -576 522 -608 929 -2 22 -4 -206 -5 -507z"/>
<path d="M2237 987 c-13 -146 -92 -357 -188 -498 -166 -244 -457 -430 -744
-475 -70 -10 -16 -12 433 -13 l512 -1 0 530 c0 292 -2 530 -4 530 -1 0 -6 -33
-9 -73z"/>
</g>
</svg>
